<?xml version="1.0" encoding="UTF-8" standalone="no"?>
<!-- Created with Inkscape (http://www.inkscape.org/) -->

<svg
   width="32"
   height="32"
   viewBox="0 0 8.4666666 8.4666666"
   version="1.1"
   id="svg5"
   xml:space="preserve"
   inkscape:version="1.2.2 (b0a8486541, 2022-12-01)"
   sodipodi:docname="pedals.svg"
   inkscape:export-filename="pedals.png"
   inkscape:export-xdpi="768"
   inkscape:export-ydpi="768"
   xmlns:inkscape="http://www.inkscape.org/namespaces/inkscape"
   xmlns:sodipodi="http://sodipodi.sourceforge.net/DTD/sodipodi-0.dtd"
   xmlns="http://www.w3.org/2000/svg"
   xmlns:svg="http://www.w3.org/2000/svg"><sodipodi:namedview
     id="namedview7"
     pagecolor="#0d0d0e"
     bordercolor="#666666"
     borderopacity="1.0"
     inkscape:showpageshadow="2"
     inkscape:pageopacity="0"
     inkscape:pagecheckerboard="0"
     inkscape:deskcolor="#d1d1d1"
     inkscape:document-units="mm"
     showgrid="false"
     showguides="true"
     inkscape:zoom="16"
     inkscape:cx="19.6875"
     inkscape:cy="16.875"
     inkscape:window-width="1920"
     inkscape:window-height="1007"
     inkscape:window-x="1920"
     inkscape:window-y="0"
     inkscape:window-maximized="1"
     inkscape:current-layer="layer1"><sodipodi:guide
       position="4.2333333,4.2333333"
       orientation="0,-1"
       id="guide2752"
       inkscape:locked="false" /><sodipodi:guide
       position="8.4666666,8.4666666"
       orientation="0.70710678,-0.70710678"
       id="guide2754"
       inkscape:locked="false" /><sodipodi:guide
       position="0,8.4666666"
       orientation="-0.70710678,-0.70710678"
       id="guide2756"
       inkscape:locked="false" /></sodipodi:namedview><defs
     id="defs2"><inkscape:path-effect
       effect="mirror_symmetry"
       start_point="4.2000803,4.4105878"
       end_point="4.2000803,6.7934798"
       center_point="4.2000803,5.6020338"
       id="path-effect2744"
       is_visible="true"
       lpeversion="1.2"
       lpesatellites=""
       mode="free"
       discard_orig_path="false"
       fuse_paths="true"
       oposite_fuse="true"
       split_items="false"
       split_open="false"
       link_styles="false" /><inkscape:path-effect
       effect="mirror_symmetry"
       start_point="3.7285953,0.588999"
       end_point="3.7285953,4.4111134"
       center_point="3.7285953,2.5000562"
       id="path-effect601"
       is_visible="true"
       lpeversion="1.2"
       lpesatellites=""
       mode="free"
       discard_orig_path="false"
       fuse_paths="false"
       oposite_fuse="true"
       split_items="false"
       split_open="false"
       link_styles="false" /><inkscape:path-effect
       effect="mirror_symmetry"
       start_point="3.738503,0.56310793"
       end_point="3.7395035,5.8048245"
       center_point="3.7390033,3.1839662"
       id="path-effect597"
       is_visible="true"
       lpeversion="1.2"
       lpesatellites=""
       mode="free"
       discard_orig_path="false"
       fuse_paths="true"
       oposite_fuse="false"
       split_items="false"
       split_open="false"
       link_styles="false" /><inkscape:path-effect
       effect="simplify"
       id="path-effect595"
       is_visible="true"
       lpeversion="1"
       steps="8"
       threshold="0.0066"
       smooth_angles="180"
       helper_size="5"
       simplify_individual_paths="false"
       simplify_just_coalesce="false" /><inkscape:path-effect
       effect="mirror_symmetry"
       start_point="3.0046948,0.88285768"
       end_point="3.0046948,2.7464733"
       center_point="3.0046948,1.8146655"
       id="path-effect432"
       is_visible="true"
       lpeversion="1.2"
       lpesatellites=""
       mode="free"
       discard_orig_path="false"
       fuse_paths="false"
       oposite_fuse="false"
       split_items="false"
       split_open="false"
       link_styles="false" /><inkscape:perspective
       sodipodi:type="inkscape:persp3d"
       inkscape:vp_x="0 : 8.4666666 : 1"
       inkscape:vp_y="550.48074 : 834.84787 : 0"
       inkscape:vp_z="8.4666666 : 8.4666666 : 1"
       inkscape:persp3d-origin="4.2333333 : 2.8222222 : 1"
       id="perspective240" /></defs><g
     inkscape:label="Layer 1"
     inkscape:groupmode="layer"
     id="layer1"><path
       style="fill:#f0dd44;stroke:none;stroke-width:0.0646031;stroke-linecap:butt;stroke-linejoin:miter;stroke-dasharray:none;stroke-opacity:1;fill-opacity:0.80773473"
       d="m 4.2333331,4.8249643 c 0.1014477,9.8e-5 0.211902,1.75e-4 0.3084948,1.75e-4 0.060016,0.8410385 0.018288,1.0883961 0.2672662,1.68475 0.4924619,1.1795462 -0.2978549,1.365146 -0.575761,1.365146 -0.2779062,0 -1.0682228,-0.1855998 -0.575761,-1.365146 0.2489784,-0.5963539 0.2072498,-0.8437115 0.2672662,-1.68475 0.096593,0 0.2070467,-7.7e-5 0.3084948,-1.75e-4 z"
       id="path2742"
       sodipodi:nodetypes="ccssscc" /><path
       style="fill:#f0dd44;stroke:none;stroke-width:0.0646031;stroke-linecap:butt;stroke-linejoin:miter;stroke-dasharray:none;stroke-opacity:1;fill-opacity:0.80773473"
       d="m 2.0260369,4.8261831 c 0.1014477,9.79e-5 0.2739619,-0.00122 0.3705546,-0.00122 C 2.3898998,5.8650562 2.2075241,6.4124347 2.0197427,6.8437311 1.5698106,7.877135 0.81214942,7.6600325 0.56769531,7.5207553 0.31431444,7.3763922 0.06761969,6.8061213 0.84094622,6.3457833 1.3586163,6.03763 1.6398545,5.7093676 1.7386361,4.826358 c 0.096593,0 0.1859526,-7.7e-5 0.2874008,-1.749e-4 z"
       id="path2746"
       sodipodi:nodetypes="ccssscc" /><path
       style="fill:#f0dd44;stroke:none;stroke-width:0.0646031;stroke-linecap:butt;stroke-linejoin:miter;stroke-dasharray:none;stroke-opacity:1;fill-opacity:0.80773473"
       d="M 6.4406294,4.8261831 C 6.3391818,4.826281 6.1666675,4.8249641 6.0700748,4.8249641 6.0767679,5.865056 6.2591422,6.4124344 6.4469236,6.843731 6.8968557,7.8771352 7.6545169,7.6600327 7.8989709,7.5207555 8.1523518,7.3763922 8.3990466,6.8061213 7.6257201,6.3457833 7.10805,6.03763 6.8268118,5.7093676 6.7280302,4.826358 c -0.096593,0 -0.1859526,-7.7e-5 -0.2874008,-1.749e-4 z"
       id="path2750"
       sodipodi:nodetypes="ccssscc" /><path
       style="fill:#7b7b7b;stroke:none;stroke-width:0.0646031;stroke-linecap:butt;stroke-linejoin:miter;stroke-dasharray:none;stroke-opacity:1;fill-opacity:0.20506555"
       d="m 4.2333335,0.59163168 c 0.1014477,9.8e-5 0.211902,1.75e-4 0.3084948,1.75e-4 0.060016,0.84103842 0.018288,1.08839602 0.2672662,1.68474992 0.4924619,1.1795462 -0.2978549,1.365146 -0.575761,1.365146 -0.2779062,0 -1.0682228,-0.1855998 -0.575761,-1.365146 0.2489784,-0.5963539 0.2072498,-0.8437115 0.2672662,-1.68474992 0.096593,0 0.2070467,-7.7e-5 0.3084948,-1.75e-4 z"
       id="path2873"
       sodipodi:nodetypes="ccssscc" /><path
       style="fill:#7b7b7b;stroke:none;stroke-width:0.0646031;stroke-linecap:butt;stroke-linejoin:miter;stroke-dasharray:none;stroke-opacity:1;fill-opacity:0.20506555"
       d="m 2.0260373,0.59285048 c 0.1014477,9.79e-5 0.2739619,-0.00122 0.3705546,-0.00122 C 2.3899002,1.6317235 2.2075245,2.179102 2.0197431,2.6103984 1.569811,3.6438023 0.81214984,3.4266998 0.56769573,3.2874226 0.31431486,3.1430595 0.06762011,2.5727886 0.84094664,2.1124506 1.3586167,1.8042973 1.6398549,1.4760349 1.7386365,0.59302538 c 0.096593,0 0.1859526,-7.7e-5 0.2874008,-1.749e-4 z"
       id="path2875"
       sodipodi:nodetypes="ccssscc" /><path
       style="fill:#7b7b7b;stroke:none;stroke-width:0.0646031;stroke-linecap:butt;stroke-linejoin:miter;stroke-dasharray:none;stroke-opacity:1;fill-opacity:0.20506555"
       d="M 6.4406298,0.59285048 C 6.3391822,0.59294838 6.1666679,0.59163148 6.0700752,0.59163148 6.0767683,1.6317233 6.2591426,2.1791017 6.446924,2.6103983 6.8968561,3.6438025 7.6545173,3.4267 7.8989713,3.2874228 8.1523522,3.1430595 8.399047,2.5727886 7.6257205,2.1124506 7.1080504,1.8042973 6.8268122,1.4760349 6.7280306,0.59302538 c -0.096593,0 -0.1859526,-7.7e-5 -0.2874008,-1.749e-4 z"
       id="path2877"
       sodipodi:nodetypes="ccssscc" /></g></svg>
